<svg width="19" height="25" viewBox="0 0 19 25" fill="none" xmlns="http://www.w3.org/2000/svg">
<g clip-path="url(#clip0_297083_8311)">
<path d="M15.2247 6.97058H3.22473C2.39973 6.97058 1.73223 7.64558 1.73223 8.47058L1.72473 17.4706C1.72473 18.2956 2.39973 18.9706 3.22473 18.9706H15.2247C16.0497 18.9706 16.7247 18.2956 16.7247 17.4706V8.47058C16.7247 7.64558 16.0497 6.97058 15.2247 6.97058ZM14.9247 10.1581L9.62223 13.4731C9.38223 13.6231 9.06723 13.6231 8.82723 13.4731L3.52473 10.1581C3.33723 10.0381 3.22473 9.83558 3.22473 9.61808C3.22473 9.11558 3.77223 8.81558 4.19973 9.07808L9.22473 12.2206L14.2497 9.07808C14.6772 8.81558 15.2247 9.11558 15.2247 9.61808C15.2247 9.83558 15.1122 10.0381 14.9247 10.1581Z" fill="#2E2F42"/>
</g>
<defs>
<clipPath id="clip0_297083_8311">
<rect width="18" height="24" fill="white" transform="translate(0.224731 0.970581)"/>
</clipPath>
</defs>
</svg>
