<svg width="19" height="19" viewBox="0 0 19 19" fill="none" xmlns="http://www.w3.org/2000/svg">
<g clip-path="url(#clip0_518398_320)">
<path d="M9.22473 9.97058C10.8822 9.97058 12.2247 8.62808 12.2247 6.97058C12.2247 5.31308 10.8822 3.97058 9.22473 3.97058C7.56723 3.97058 6.22473 5.31308 6.22473 6.97058C6.22473 8.62808 7.56723 9.97058 9.22473 9.97058ZM9.22473 11.4706C7.22223 11.4706 3.22473 12.4756 3.22473 14.4706V15.2206C3.22473 15.6331 3.56223 15.9706 3.97473 15.9706H14.4747C14.8872 15.9706 15.2247 15.6331 15.2247 15.2206V14.4706C15.2247 12.4756 11.2272 11.4706 9.22473 11.4706Z" fill="#4D5AE5"/>
</g>
<defs>
<clipPath id="clip0_518398_320">
<rect width="18" height="18" fill="white" transform="translate(0.224731 0.970581)"/>
</clipPath>
</defs>
</svg>
