<svg width="19" height="25" viewBox="0 0 19 25" fill="none" xmlns="http://www.w3.org/2000/svg">
<g clip-path="url(#clip0_297083_8305)">
<path d="M14.951 14.8357L13.1128 14.6258C12.6714 14.5752 12.2372 14.7271 11.926 15.0383L10.5944 16.3699C8.54643 15.3278 6.86749 13.6561 5.8254 11.6008L7.1642 10.262C7.47538 9.95084 7.62736 9.51663 7.5767 9.07518L7.36683 7.2515C7.27999 6.52058 6.66486 5.97058 5.92671 5.97058H4.67475C3.85699 5.97058 3.17673 6.65084 3.22739 7.4686C3.61094 13.6489 8.55367 18.5844 14.7266 18.9679C15.5444 19.0186 16.2247 18.3383 16.2247 17.5206V16.2686C16.2319 15.5377 15.6819 14.9225 14.951 14.8357Z" fill="#2E2F42"/>
</g>
<defs>
<clipPath id="clip0_297083_8305">
<rect width="18" height="24" fill="white" transform="translate(0.224731 0.970581)"/>
</clipPath>
</defs>
</svg>
